<svg width="230" height="40" viewBox="0 0 230 40" fill="none" xmlns="http://www.w3.org/2000/svg">
<path d="M112.431 8.00233C112.431 2.85673 114.97 0.00151018 118.394 0.00151018H151.053C151.053 0.00151018 152.109 -0.0312774 152.468 0.532259C152.468 0.532259 152.714 0.891305 152.714 1.45344L152.71 10.3473C152.71 10.9129 152.461 11.2735 152.461 11.2735C152.095 11.8358 151.039 11.8564 151.039 11.8564H129.579C127.63 11.8564 126.583 13.2132 126.583 15.7976V24.0536C126.583 26.6399 127.629 27.9968 129.579 27.9968H151.039C151.039 27.9968 152.095 28.0127 152.461 28.5762C152.461 28.5762 152.71 28.9404 152.71 29.5059L152.714 38.4001C152.714 38.9619 152.468 39.3209 152.468 39.3209C152.109 39.8851 151.053 39.8486 151.053 39.8486H118.394C114.97 39.8486 112.431 36.9944 112.431 31.8461V8.00233Z" fill="#105E8B"/>
<path d="M56.5935 8.00233C56.5935 2.85673 59.1291 0.00151018 62.5538 0.00151018H95.2129C95.2129 0.00151018 96.2685 -0.0312774 96.6277 0.532259C96.6277 0.532259 96.8734 0.891305 96.8734 1.45344L96.8699 10.3473C96.8699 10.9129 96.6208 11.2735 96.6208 11.2735C96.2544 11.8358 95.2022 11.8564 95.2022 11.8564H73.7423C71.789 11.8564 70.7456 13.2132 70.7456 15.7976V24.0536C70.7456 26.6399 71.7889 27.9968 73.7423 27.9968H95.2022C95.2022 27.9968 96.2544 28.0127 96.6208 28.5762C96.6208 28.5762 96.8699 28.9404 96.8699 29.5059L96.8734 38.4001C96.8734 38.9619 96.6277 39.3209 96.6277 39.3209C96.2685 39.8851 95.2129 39.8486 95.2129 39.8486H62.5538C59.129 39.8486 56.5935 36.9944 56.5935 31.8461V8.00233Z" fill="#105E8B"/>
<path d="M13.6751 26.6885L13.6717 38.3996C13.6717 38.9617 13.4295 39.3241 13.4295 39.3241C13.0473 39.8879 11.9971 39.8463 11.9971 39.8463H1.68354C1.68354 39.8463 0.627825 39.8879 0.261421 39.3241C0.261421 39.3241 0 38.9616 0 38.3996V20.8476L10.3099 13.1559H0V1.44623C0 0.883987 0.261421 0.521597 0.261421 0.521597C0.627825 -0.0422627 1.68354 0.00109453 1.68354 0.00109453H11.9971C11.9971 0.00109453 13.0473 -0.0422627 13.4295 0.521597C13.4295 0.521597 13.6717 0.884094 13.6717 1.44623L13.6786 13.1607H27.3535L27.357 1.44623C27.357 0.883987 27.6026 0.521597 27.6026 0.521597C27.9834 -0.0422627 29.0315 0.00109453 29.0315 0.00109453H39.3489C39.3489 0.00109453 40.4011 -0.0422627 40.771 0.521597C40.771 0.521597 41.0286 0.884094 41.0286 1.44623V38.3995C41.0286 38.9616 40.771 39.324 40.771 39.324C40.4011 39.8878 39.3489 39.8462 39.3489 39.8462H29.0315C29.0315 39.8462 27.9834 39.8878 27.6026 39.324C27.6026 39.324 27.357 38.9615 27.357 38.3995L27.3535 26.6884H13.6751V26.6885Z" fill="#105E8B"/>
<path d="M218.433 8.75547L208.527 13.0556V12.4567C213.366 10.3562 217.273 8.66056 218.359 8.18805L218.433 8.35469L218.507 8.18805C221.755 9.60115 225.003 11.0137 228.25 12.428V13.0275L228.021 12.9276L218.433 8.75536L218.433 8.75547ZM201.537 16.0899L183.385 23.9694V23.3699C185.054 22.6431 193.389 19.026 201.537 15.4902V16.0899ZM218.3 9.85148V9.51142L218.433 9.77577L218.566 9.51142V9.85148C221.794 11.4352 225.023 13.0189 228.25 14.6036V15.2158L218.566 10.4637V10.5215L218.433 10.456L218.3 10.5215V10.4637L208.527 15.2435V14.6321C213.176 12.3589 217.109 10.4359 218.3 9.85148ZM201.537 18.6623L188.483 25.0466V24.4344C189.947 23.7159 195.549 20.9766 201.537 18.0493V18.6623ZM225.749 23.7501L219.088 16.3186L219.031 15.8765L219.255 15.679C220.737 17.3249 225.06 22.158 226.541 23.8044H225.798L225.749 23.7502V23.7501ZM227.121 20.5826L218.789 14.0151L218.738 13.6225L218.9 13.4087C221.829 15.7113 224.758 18.0148 227.686 20.3187V20.6181H227.166L227.121 20.5826ZM228.002 17.8408L218.574 12.1405L218.553 11.986L218.706 11.5787C221.888 13.5023 225.069 15.4264 228.25 17.352V17.9912L228.002 17.8408ZM217.745 16.3552L211.589 23.242H210.846L217.611 15.6789L217.835 15.8764L217.778 16.3185L217.745 16.3552ZM218.025 14.0556L209.7 20.618H209.18V20.3186C212.108 18.0147 215.037 15.7117 217.966 13.4086L218.128 13.6224L218.077 14.015L218.025 14.0556ZM218.226 12.1807L208.616 17.9911V17.3519C211.797 15.4264 214.978 13.5027 218.16 11.5785L218.313 11.9859L218.292 12.1404L218.226 12.1807H218.226Z" fill="#105E8B"/>
<path fill-rule="evenodd" clip-rule="evenodd" d="M201.537 20.7655C197.57 22.7051 194.214 24.3464 192.785 25.0465H194.038L201.537 21.3792V20.7655Z" fill="#105E8B"/>
<path fill-rule="evenodd" clip-rule="evenodd" d="M218.43 0.000107854C211.236 0.000107854 206.944 5.36972 206.944 14.9849C206.944 24.5584 211.236 29.9696 218.43 29.9696C225.667 29.9696 230 24.5584 230 14.9849C230 4.95341 225.667 0.000107854 218.43 0.000107854ZM173.562 29.5535H178.614V0.416316H173.73C172.763 1.74831 171.038 3.45499 168.261 3.49673V5.63267C170.911 5.54951 172.679 4.67956 173.436 3.76378H173.562V29.5535H173.562ZM187.142 24.4192H198.645C198.688 24.3088 198.73 24.1964 198.771 24.0818H198.782C199.58 21.8379 199.998 18.815 199.998 14.9849C199.998 5.45288 197.431 0.915787 192.888 0.915787C188.302 0.915787 185.819 5.45288 185.819 14.9849C185.819 18.815 186.224 21.8379 187.008 24.0818H187.019C187.059 24.1964 187.1 24.3088 187.142 24.4192H187.142ZM198.188 25.4757H187.593C188.787 27.8512 190.568 29.0123 192.888 29.0123C195.186 29.0123 196.978 27.8512 198.188 25.4757H198.188ZM216.138 24.4192H212.727C212.684 24.3088 212.643 24.1964 212.603 24.0818H212.592C211.808 21.8379 211.404 18.815 211.404 14.9849C211.404 5.45288 213.886 0.915787 218.472 0.915787C223.016 0.915787 225.582 5.45288 225.582 14.9849C225.582 18.815 225.164 21.8379 224.367 24.0818H224.355C224.315 24.1964 224.273 24.3088 224.23 24.4192H220.82L219.677 16.9763L219.524 15.9782L219.282 14.4042L219.161 13.6145L218.972 12.3814L218.864 11.6742L218.856 11.6238V10.6059V9.99374V8.93947V8.33991V7.50523H218.102V8.29968V8.89892V9.94833V10.5603V11.6136V11.625L217.995 12.3198L217.809 13.5318L217.688 14.3212L217.453 15.8554L217.299 16.8532L216.138 24.4193L216.138 24.4192ZM213.177 25.4757H216.293L217.862 28.9842C215.838 28.7946 214.265 27.6385 213.177 25.4757ZM218.356 29.0112L217.56 25.4757H219.399L218.603 29.0109C218.559 29.0117 218.516 29.0123 218.472 29.0123C218.433 29.0123 218.394 29.0118 218.356 29.0112H218.356ZM219.097 28.9822L220.665 25.4756H223.773C222.675 27.6312 221.097 28.7866 219.097 28.9822H219.097ZM219.48 24.4191H217.478L218.479 11.664L219.48 24.4191ZM181.36 14.9848C181.36 24.5583 185.651 29.9695 192.846 29.9695C200.082 29.9695 204.416 24.5583 204.416 14.9848C204.416 4.9533 200.082 0 192.846 0C185.651 0 181.36 5.36961 181.36 14.9848Z" fill="#D6B160"/>
<path d="M174.168 39.8411H177.152V38.9714H174.168V39.8411ZM174.168 34.8572H177.152V33.9875H174.168V34.8572ZM174.168 37.1317H176.983V36.2788H174.168V37.1317ZM173.551 33.9875V39.8411H174.532V33.9875H173.551Z" fill="#105E8B"/>
<path d="M179.848 37.9512L179.104 38.4696C179.231 38.7372 179.408 38.9881 179.636 39.2138C179.856 39.4397 180.118 39.6236 180.414 39.7574C180.71 39.8996 181.023 39.9664 181.369 39.9664C181.623 39.9664 181.868 39.9246 182.105 39.8494C182.333 39.7658 182.544 39.6487 182.73 39.4981C182.916 39.356 183.068 39.172 183.178 38.9546C183.288 38.7371 183.339 38.4947 183.339 38.2187C183.339 37.9595 183.296 37.7337 183.203 37.5413C183.11 37.349 183.001 37.1901 182.857 37.048C182.713 36.9059 182.553 36.7887 182.375 36.6967C182.198 36.6049 182.011 36.5212 181.834 36.4626C181.521 36.3539 181.259 36.2452 181.065 36.1364C180.871 36.0277 180.727 35.919 180.634 35.7936C180.541 35.6766 180.49 35.5427 180.49 35.3923C180.49 35.2251 180.558 35.0745 180.684 34.9491C180.811 34.8235 181.014 34.7651 181.293 34.7651C181.487 34.7651 181.665 34.7986 181.817 34.8738C181.961 34.9491 182.096 35.0494 182.206 35.1748C182.316 35.3003 182.417 35.4425 182.493 35.5846L183.296 35.133C183.203 34.9239 183.059 34.7316 182.882 34.5392C182.704 34.3469 182.485 34.188 182.223 34.0625C181.961 33.9371 181.656 33.8785 181.31 33.8785C180.955 33.8785 180.642 33.9454 180.363 34.0792C180.084 34.2131 179.856 34.397 179.695 34.6311C179.535 34.8737 179.45 35.1496 179.45 35.459C179.45 35.7349 179.501 35.9606 179.611 36.1532C179.721 36.3455 179.856 36.5127 180.017 36.6382C180.177 36.772 180.355 36.8807 180.532 36.9643C180.71 37.0563 180.879 37.1232 181.022 37.1733C181.268 37.2653 181.487 37.3489 181.682 37.441C181.876 37.5329 182.02 37.6501 182.13 37.7755C182.231 37.9093 182.282 38.0849 182.282 38.294C182.282 38.5281 182.197 38.7204 182.028 38.8627C181.859 39.0048 181.64 39.08 181.369 39.08C181.149 39.08 180.946 39.0298 180.769 38.9378C180.583 38.8458 180.414 38.7121 180.27 38.5448C180.118 38.3776 179.974 38.1768 179.848 37.9511L179.848 37.9512Z" fill="#105E8B"/>
<path d="M184.843 34.8989H186.407V39.8411H187.404V34.8989H188.968V33.9875H184.843V34.8989Z" fill="#105E8B"/>
<path d="M188.122 39.4147C188.122 39.5735 188.181 39.7073 188.3 39.8244C188.409 39.9414 188.553 40 188.722 40C188.891 40 189.035 39.9414 189.145 39.8244C189.255 39.7073 189.314 39.5734 189.314 39.4147C189.314 39.2557 189.255 39.1136 189.145 38.9965C189.035 38.8878 188.891 38.8293 188.722 38.8293C188.553 38.8293 188.409 38.8878 188.3 38.9965C188.181 39.1136 188.122 39.2558 188.122 39.4147Z" fill="#105E8B"/>
<path d="M192.078 35.3589L193.455 34.9826V39.8411H194.436V33.8956L192.078 34.4223V35.3589Z" fill="#105E8B"/>
<path d="M200.319 35.961C200.319 36.2035 200.268 36.4125 200.166 36.5965C200.056 36.7804 199.913 36.9227 199.735 37.0314C199.558 37.1401 199.355 37.1903 199.127 37.1903C198.898 37.1903 198.696 37.1401 198.518 37.0314C198.341 36.9227 198.197 36.7804 198.096 36.5965C197.986 36.4125 197.935 36.2035 197.935 35.961C197.935 35.7185 197.986 35.5095 198.096 35.3255C198.197 35.1499 198.341 35.0078 198.518 34.899C198.696 34.7987 198.899 34.7485 199.127 34.7485C199.355 34.7485 199.558 34.7987 199.735 34.899C199.913 35.0078 200.056 35.1499 200.166 35.3255C200.268 35.5095 200.319 35.7185 200.319 35.961ZM198.915 39.8327L200.8 37.3407C200.944 37.1484 201.062 36.9394 201.155 36.7136C201.248 36.4878 201.299 36.237 201.299 35.961C201.299 35.5262 201.206 35.1498 201.012 34.8405C200.817 34.531 200.555 34.2969 200.226 34.1297C199.896 33.9624 199.532 33.8787 199.127 33.8787C198.721 33.8787 198.358 33.9623 198.028 34.1297C197.698 34.2969 197.445 34.531 197.25 34.8405C197.056 35.1498 196.955 35.5262 196.955 35.961C196.955 36.237 197.005 36.4962 197.098 36.7304C197.191 36.9645 197.326 37.1652 197.496 37.3324C197.665 37.508 197.859 37.6335 198.07 37.7253C198.282 37.8173 198.501 37.8592 198.738 37.8592C198.932 37.8592 199.11 37.8341 199.262 37.7923C199.406 37.7505 199.549 37.6502 199.676 37.5081L199.524 37.5332L197.648 39.8328H198.915V39.8327Z" fill="#105E8B"/>
<path d="M202.972 39.8411H207.486V38.9213H204.925L206.598 37.2907C206.843 37.0648 207.038 36.814 207.19 36.5297C207.342 36.2454 207.418 35.9527 207.418 35.6432C207.418 35.4509 207.376 35.2503 207.291 35.0412C207.207 34.8322 207.08 34.6483 206.919 34.4726C206.75 34.297 206.539 34.1548 206.285 34.0461C206.032 33.9374 205.736 33.8871 205.389 33.8871C204.942 33.8871 204.561 33.9792 204.248 34.163C203.936 34.3553 203.699 34.6063 203.538 34.9324C203.378 35.2585 203.293 35.6349 203.293 36.053H204.282C204.282 35.7937 204.324 35.5679 204.417 35.3756C204.502 35.1833 204.629 35.0328 204.789 34.9241C204.95 34.8236 205.144 34.7735 205.373 34.7735C205.533 34.7735 205.677 34.7986 205.804 34.8487C205.93 34.9072 206.032 34.9741 206.125 35.0661C206.209 35.1581 206.277 35.2501 206.319 35.3588C206.361 35.4674 206.378 35.5846 206.378 35.6933C206.378 35.8522 206.353 35.9943 206.302 36.1364C206.251 36.2787 206.175 36.4123 206.074 36.5546C205.973 36.6967 205.854 36.8389 205.711 36.9895L202.972 39.841L202.972 39.8411Z" fill="#105E8B"/>
<path d="M210.393 37.8676C210.393 37.625 210.444 37.416 210.554 37.2237C210.655 37.0397 210.799 36.8976 210.976 36.7889C211.154 36.6885 211.357 36.6383 211.585 36.6383C211.813 36.6383 212.016 36.6885 212.193 36.7889C212.371 36.8976 212.514 37.0397 212.624 37.2237C212.726 37.416 212.776 37.625 212.776 37.8676C212.776 38.1102 212.726 38.3192 212.624 38.4948C212.514 38.6703 212.371 38.8125 212.193 38.9128C212.016 39.0215 211.813 39.0718 211.585 39.0718C211.356 39.0718 211.154 39.0215 210.976 38.9128C210.799 38.8125 210.655 38.6703 210.554 38.4948C210.444 38.3192 210.393 38.1102 210.393 37.8676ZM211.788 33.9959L209.911 36.4878C209.767 36.6717 209.649 36.8809 209.556 37.1066C209.463 37.3407 209.412 37.5917 209.412 37.8676C209.412 38.2941 209.514 38.6704 209.708 38.9798C209.903 39.2892 210.156 39.5317 210.486 39.6906C210.815 39.8577 211.179 39.9414 211.585 39.9414C211.99 39.9414 212.354 39.8578 212.683 39.6906C213.013 39.5316 213.275 39.2892 213.47 38.9798C213.664 38.6704 213.757 38.2941 213.757 37.8676C213.757 37.5917 213.706 37.3324 213.613 37.0983C213.512 36.864 213.376 36.6634 213.216 36.4878C213.047 36.3207 212.852 36.1868 212.641 36.0948C212.43 36.0029 212.202 35.961 211.973 35.961C211.77 35.961 211.593 35.9861 211.449 36.0278C211.306 36.0781 211.162 36.1784 211.035 36.3206L211.179 36.2954L213.055 33.9958H211.788V33.9959Z" fill="#105E8B"/>
</svg>
